<!--
[INPUT]: 依赖 Pyra、AdRevenuePulse、mcp-reminder 与 mpy-studio 四个公开项目事实
[OUTPUT]: 对外提供四项代表作品的古风行迹图
[POS]: assets 的核心叙事组件，以一条非线性路径连接软件、自动化、Agent 与硬件教育
[PROTOCOL]: 变更时更新此头部，然后检查 AGENTS.md
-->
<svg xmlns="http://www.w3.org/2000/svg" viewBox="0 0 1200 340" role="img" aria-labelledby="title desc">
  <title id="title">晓峰项目行迹</title>
  <desc id="desc">从 Pyra 到 AdRevenuePulse、mcp-reminder 与 mpy-studio 的四项代表作品</desc>
  <rect width="1200" height="340" rx="22" fill="#fbfbfa"/>
  <path d="M88 206 C208 66 302 276 418 150 S645 78 746 193 S961 266 1112 109" fill="none" stroke="#1e2a3a" stroke-width="3" stroke-linecap="round" opacity=".78"/>
  <path d="M86 210 C208 70 302 280 420 154 S647 82 748 197 S963 270 1114 113" fill="none" stroke="#4fa7b3" stroke-width="8" stroke-linecap="round" opacity=".09"/>

  <g transform="translate(104 184)">
    <circle r="48" fill="#fff" stroke="#314e66" stroke-width="2"/>
    <rect x="-25" y="-19" width="50" height="38" rx="5" fill="none" stroke="#314e66" stroke-width="3"/>
    <path d="M-15-6 L-5 2 L-15 10 M2 10 H15" fill="none" stroke="#4fa7b3" stroke-width="3" stroke-linecap="round"/>
    <text y="76" text-anchor="middle" font-family="KaiTi, STKaiti, serif" font-size="24" fill="#1e2a3a">Pyra</text>
    <text y="101" text-anchor="middle" font-family="KaiTi, STKaiti, serif" font-size="16" fill="#607180">开发入口</text>
  </g>

  <g transform="translate(402 152)">
    <circle r="48" fill="#fff" stroke="#314e66" stroke-width="2"/>
    <path d="M-24 21 V-4 M-7 21 V-20 M10 21 V-11 M27 21 V-31" fill="none" stroke="#314e66" stroke-width="7" stroke-linecap="round"/>
    <path d="M-29-15 C-5-36 13-17 31-38" fill="none" stroke="#4fa7b3" stroke-width="3"/>
    <text y="76" text-anchor="middle" font-family="KaiTi, STKaiti, serif" font-size="22" fill="#1e2a3a">收益脉搏</text>
    <text y="101" text-anchor="middle" font-family="KaiTi, STKaiti, serif" font-size="16" fill="#607180">自托管数据</text>
  </g>

  <g transform="translate(748 198)">
    <circle r="48" fill="#fff" stroke="#314e66" stroke-width="2"/>
    <path d="M-22 15 H22 L18-10 C16-26-16-26-18-10 Z" fill="none" stroke="#314e66" stroke-width="3"/>
    <path d="M-8 24 C-3 31 3 31 8 24" fill="none" stroke="#4fa7b3" stroke-width="3"/>
    <circle cy="-28" r="5" fill="#b74338"/>
    <text y="76" text-anchor="middle" font-family="KaiTi, STKaiti, serif" font-size="22" fill="#1e2a3a">MCP 提醒</text>
    <text y="101" text-anchor="middle" font-family="KaiTi, STKaiti, serif" font-size="16" fill="#607180">Agent 行动力</text>
  </g>

  <g transform="translate(1092 120)">
    <circle r="48" fill="#fff" stroke="#314e66" stroke-width="2"/>
    <rect x="-24" y="-24" width="48" height="48" rx="5" fill="none" stroke="#314e66" stroke-width="3"/>
    <rect x="-10" y="-10" width="20" height="20" fill="none" stroke="#4fa7b3" stroke-width="3"/>
    <path d="M-34-16 H-24 M-34 0 H-24 M-34 16 H-24 M24-16 H34 M24 0 H34 M24 16 H34" stroke="#314e66" stroke-width="3"/>
    <text y="76" text-anchor="middle" font-family="KaiTi, STKaiti, serif" font-size="22" fill="#1e2a3a">MPY 工坊</text>
    <text y="101" text-anchor="middle" font-family="KaiTi, STKaiti, serif" font-size="16" fill="#607180">连接真实世界</text>
  </g>

  <g fill="#b74338">
    <circle cx="104" cy="184" r="5"/><circle cx="402" cy="152" r="5"/><circle cx="748" cy="198" r="5"/><circle cx="1092" cy="120" r="5"/>
  </g>
  <text x="58" y="52" font-family="KaiTi, STKaiti, serif" font-size="22" fill="#314e66">器成于用，路始于行</text>
  <path d="M58 64 H252" stroke="#4fa7b3" stroke-width="2" opacity=".55"/>
</svg>
